<?xml version="1.0" standalone="no"?>
<!DOCTYPE svg PUBLIC "-//W3C//DTD SVG 20010904//EN"
 "http://www.w3.org/TR/2001/REC-SVG-20010904/DTD/svg10.dtd">
<svg version="1.0" xmlns="http://www.w3.org/2000/svg"
 width="720.000000pt" height="720.000000pt" viewBox="0 0 720.000000 720.000000"
 preserveAspectRatio="xMidYMid meet">

<g transform="translate(0.000000,720.000000) scale(0.100000,-0.100000)"
fill="#000000" stroke="none">
<path d="M3455 4849 c-181 -26 -370 -124 -505 -261 -430 -436 -306 -1163 244
-1440 184 -92 418 -117 618 -65 338 88 591 351 664 690 19 87 21 258 4 347
-89 478 -540 799 -1025 729z m324 -180 c128 -34 224 -91 327 -193 103 -104
161 -203 194 -332 27 -104 27 -263 1 -366 -54 -209 -202 -390 -395 -483 -63
-30 -174 -65 -205 -65 -8 0 -11 55 -11 180 0 99 2 180 5 180 3 0 62 -46 132
-101 l127 -102 49 54 c26 30 55 64 64 77 15 21 15 24 -3 37 -10 7 -99 77 -196
154 l-178 142 0 60 c0 32 2 59 5 59 3 0 62 -45 130 -100 69 -55 130 -100 134
-100 9 0 121 133 121 143 0 4 -88 77 -195 163 l-195 156 0 59 c0 32 2 59 5 59
4 0 62 -45 130 -100 68 -55 128 -101 134 -102 6 -2 37 30 70 71 l59 74 -26 22
c-94 77 -462 365 -467 365 -8 0 -473 -369 -481 -381 -3 -5 16 -37 43 -71 26
-34 53 -69 59 -77 9 -12 32 3 135 86 68 54 130 103 137 107 9 5 12 -7 12 -53
l0 -60 -195 -153 c-107 -84 -194 -157 -195 -161 0 -10 111 -147 120 -147 3 0
63 45 132 100 70 55 129 100 132 100 3 0 6 -27 6 -59 l0 -59 -195 -156 c-107
-86 -195 -160 -195 -164 0 -4 29 -38 63 -75 l62 -69 127 101 c70 56 130 101
133 101 3 0 5 -81 5 -181 l0 -181 -42 7 c-162 27 -339 134 -445 269 -110 141
-157 280 -156 466 0 103 3 125 32 210 52 154 121 257 231 345 195 157 423 206
659 144z"/>
<path d="M3325 2734 c-76 -42 -107 -101 -107 -204 0 -143 84 -223 219 -207 51
5 88 29 121 77 34 51 30 70 -15 70 -32 -1 -41 -6 -58 -33 -39 -62 -128 -58
-162 7 -21 38 -23 130 -4 174 29 68 105 81 157 27 25 -27 41 -35 68 -35 24 0
36 5 36 14 0 20 -41 76 -73 100 -37 27 -140 33 -182 10z"/>
<path d="M5571 2724 c-12 -15 -21 -38 -21 -51 0 -32 42 -73 75 -73 33 0 75 41
75 73 0 40 -36 77 -75 77 -24 0 -39 -7 -54 -26z m87 0 c26 -18 30 -65 6 -88
-41 -42 -113 1 -98 58 11 44 52 58 92 30z"/>
<path d="M5590 2673 c0 -34 1 -35 14 -17 14 18 15 18 21 2 11 -28 20 -21 22
17 1 32 -1 35 -28 35 -27 0 -29 -3 -29 -37z m40 17 c0 -5 -7 -10 -15 -10 -8 0
-15 5 -15 10 0 6 7 10 15 10 8 0 15 -4 15 -10z"/>
<path d="M1500 2536 l0 -206 125 0 c137 0 169 9 199 54 25 39 21 108 -9 140
l-25 27 21 29 c28 37 21 93 -16 129 -24 25 -31 26 -160 29 l-135 4 0 -206z
m228 122 c7 -7 12 -21 12 -33 0 -35 -20 -45 -92 -45 l-68 0 0 45 0 45 68 0
c40 0 73 -5 80 -12z m12 -168 c24 -24 25 -38 4 -68 -13 -19 -24 -22 -90 -22
l-74 0 0 55 0 55 70 0 c57 0 74 -4 90 -20z"/>
<path d="M2270 2705 c0 -34 1 -35 40 -35 39 0 40 1 40 35 0 34 -1 35 -40 35
-39 0 -40 -1 -40 -35z"/>
<path d="M5130 2669 l0 -70 -26 20 c-15 12 -41 21 -60 21 -81 0 -128 -56 -128
-154 1 -68 19 -113 60 -145 41 -32 121 -25 146 13 5 7 8 4 8 -6 0 -14 9 -18
40 -18 l40 0 0 205 0 205 -40 0 -40 0 0 -71z m-20 -119 c15 -15 20 -33 20 -75
0 -88 -53 -123 -105 -70 -20 19 -25 34 -25 75 0 57 24 90 65 90 14 0 34 -9 45
-20z"/>
<path d="M1980 2622 c-53 -26 -80 -74 -80 -142 0 -43 6 -66 23 -91 61 -92 207
-91 262 2 26 45 27 132 0 177 -38 63 -135 89 -205 54z m124 -74 c9 -12 16 -43
16 -68 0 -63 -21 -90 -69 -90 -53 0 -75 27 -75 90 0 63 22 90 75 90 28 0 42
-6 53 -22z"/>
<path d="M2493 2634 c-12 -3 -33 -17 -47 -31 -33 -32 -36 -93 -7 -122 19 -19
79 -41 111 -41 25 0 60 -29 54 -45 -10 -24 -91 -20 -106 5 -10 15 -24 20 -55
20 l-42 0 11 -31 c15 -45 61 -69 131 -69 94 0 137 32 137 103 0 45 -24 65
-107 88 -78 22 -91 32 -73 54 19 22 77 19 92 -5 9 -14 24 -20 50 -20 37 0 37
0 26 31 -6 16 -20 37 -33 45 -24 15 -105 26 -142 18z"/>
<path d="M2805 2630 c-78 -32 -106 -171 -50 -256 32 -49 126 -69 185 -39 28
15 70 60 70 76 0 17 -72 9 -97 -11 -14 -11 -34 -20 -43 -20 -24 0 -57 30 -65
58 -6 22 -6 22 99 22 l106 0 0 35 c0 87 -57 145 -140 144 -25 0 -54 -4 -65 -9z
m99 -71 c45 -35 34 -49 -39 -49 -63 0 -64 1 -56 23 7 19 43 46 62 47 4 0 18
-9 33 -21z"/>
<path d="M3688 2624 c-29 -15 -48 -42 -48 -68 0 -24 61 -21 83 4 20 24 60 26
81 5 23 -24 9 -43 -37 -50 -108 -17 -140 -41 -140 -107 0 -78 75 -111 156 -68
31 17 37 17 37 5 0 -11 12 -15 47 -15 37 0 44 3 35 12 -8 8 -12 51 -12 129 0
126 -5 140 -57 160 -36 14 -114 10 -145 -7z m128 -186 c-8 -40 -30 -58 -72
-58 -56 0 -53 63 4 76 15 3 32 7 37 9 31 10 37 4 31 -27z"/>
<path d="M4024 2626 c-65 -28 -85 -103 -40 -145 14 -13 54 -30 93 -39 56 -14
68 -21 68 -37 0 -17 -8 -20 -47 -23 -39 -3 -49 1 -60 17 -18 30 -88 30 -88 1
0 -29 45 -68 87 -76 124 -23 218 42 183 127 -11 26 -62 59 -92 59 -7 0 -30 5
-51 11 -31 8 -38 14 -35 32 4 32 71 37 90 8 9 -15 23 -21 50 -21 44 0 48 14
18 53 -34 43 -117 58 -176 33z"/>
<path d="M4334 2621 c-88 -54 -81 -248 10 -286 71 -30 151 -10 186 47 29 48
26 58 -19 58 -31 0 -41 -4 -46 -20 -7 -21 -41 -34 -71 -28 -28 5 -45 47 -41
101 7 81 64 115 105 62 15 -18 29 -25 56 -25 20 0 36 5 36 10 0 25 -32 71 -60
85 -41 21 -118 19 -156 -4z"/>
<path d="M4664 2631 c-25 -11 -64 -58 -64 -77 0 -23 73 -18 88 6 23 38 104 16
89 -24 -3 -8 -23 -18 -44 -21 -76 -12 -111 -26 -127 -50 -25 -38 -20 -82 13
-116 35 -35 81 -38 128 -10 26 16 32 17 37 5 3 -9 20 -14 43 -14 l38 0 -5 130
c-6 160 -14 172 -112 177 -35 1 -73 -1 -84 -6z m116 -188 c0 -37 -27 -63 -66
-63 -38 0 -48 12 -40 45 6 22 35 35 99 44 4 1 7 -11 7 -26z"/>
<path d="M5329 2625 c-38 -21 -60 -60 -66 -119 -11 -106 36 -174 128 -182 66
-6 114 15 142 64 l19 32 -37 0 c-22 0 -47 -8 -62 -20 -14 -11 -33 -20 -43 -20
-26 0 -70 39 -70 61 0 18 8 19 106 19 l107 0 -7 46 c-12 90 -59 134 -143 134
-26 -1 -60 -7 -74 -15z m126 -78 c8 -12 15 -25 15 -29 0 -5 -29 -8 -65 -8 -36
0 -65 3 -65 6 0 16 24 46 43 53 29 11 55 3 72 -22z"/>
<path d="M2270 2480 l0 -150 40 0 40 0 0 150 0 150 -40 0 -40 0 0 -150z"/>
</g>
</svg>
