<?xml version="1.0" encoding="utf-8"?>
<!-- Generator: Adobe Illustrator 27.1.0, SVG Export Plug-In . SVG Version: 6.00 Build 0)  -->
<svg version="1.1" id="Capa_1" xmlns="http://www.w3.org/2000/svg" xmlns:xlink="http://www.w3.org/1999/xlink" x="0px" y="0px"
	 viewBox="0 0 1082.27 1082.27" style="enable-background:new 0 0 1082.27 1082.27;" xml:space="preserve">
<style type="text/css">
	.st0{fill:#38AFFF;}
</style>
<g>
	<path class="st0" d="M492.85,75.96C279.64,94.59,94.23,275.14,76.75,489.75C45.6,742.76,243.24,982.88,497.86,1001.59
		c26.7,2.02,54.14,2.1,80.83,0c224.56-16.03,410.16-208.01,423.92-431.9C1020.48,283.96,778.6,48.52,492.85,75.96z M881.32,807.25
		c-110.7,145.52-316.9,205.5-488.12,142.31c-157.65-54.72-278.31-207.78-288.42-374.72c-1.03-1.93,0.21-4.17-0.81-6.1
		c0.53-2.66-2.34-5.22-0.22-7.91c-0.99-19.55-1.31-39.76,1.02-59.12c18.6-270.55,294.34-458.61,553.24-381.88
		C954.72,204.44,1071.85,564.55,881.32,807.25z"/>
	<path class="st0" d="M798.57,723.66c-30.21,24.8-66.92,41.1-106.06,44.24c-147.19,18.65-268.7-92.08-254.82-241.18
		c-1.75-2.03,0.58-3.92,0.22-5.9c0.95-1.6-0.16-3.51,0.81-5.1c8.08-108.74,101.12-189.38,208.06-193.78
		c15.06-1.77,29.9,0.98,44.94,1c38.93,3.89,76.23,19.5,106.84,43.95c1.83,26.71,0.07,54.47,0.59,81.54c0,1.57,1.2,3.79-1.42,4.67
		C709,349.41,527.77,384.13,515.86,529.86c-13.79,163.53,179.86,223.93,281.86,107.65c2.05,0.31,1.47,1.94,1.47,3.13
		C798.61,668.2,800.4,696.44,798.57,723.66z"/>
	<path class="st0" d="M644.82,568.84c-2.71,34.14-13.38,67.26-31.02,96.62c-2.83,4.76-2.69,4.58-7.7,2.34
		c-22.61-10.13-40.7-27.67-53.95-48.35c-1.4-2.06-0.65-4.01,0.31-5.9c7.33-14.4,10.98-29.87,13.38-45.71
		c4.31-30.79-0.39-63.26-13.35-91.81c-6.04-11.13,55.15-66.66,61.9-50.13C639.37,468.67,650.39,519.93,644.82,568.84z"/>
	<path class="st0" d="M541.51,331.87c0.14,1.27-1.35,1.57-2.35,2.17c-7.05,4.22-14.23,8.28-21.01,12.91
		c-21.78,14.89-40.04,33.39-55.02,55.07c-1.88,2.72-3.76,3.88-7.17,3.87c-55.61-0.12-111.23-0.15-166.84,0.03
		c-4.54,0.02-5.45-1.24-5.4-5.53c0.22-21.47,0.21-42.95,0-64.43c-0.04-4.12,0.99-5.25,5.17-5.23c41.3,0.16,82.59,0.09,123.89,0.09
		C455.25,331.87,500.29,328.82,541.51,331.87z"/>
	<path class="st0" d="M523.44,747.45c-36.63,17.18-75.04,23.48-114.65,21.43c-44.61,0.36-88.66-15.06-123.04-43.58
		c-1.52-1.24-1.94-2.4-1.94-4.12c0.02-27.81,0.01-55.62,0.01-83.67c43.67,48.2,110.98,72.5,174.91,55.02
		c4.19-1.2,6.42-1.16,9.27,2.71C483.05,715.64,501.29,732.8,523.44,747.45z"/>
</g>
</svg>
